<svg xmlns="http://www.w3.org/2000/svg" viewBox="0 0 720 720" width="500" height="500">
	<defs>
		<radialGradient id="grd1" gradientUnits="userSpaceOnUse"  cx="560.791" cy="341.979" r="515.509">
			<stop offset="0" stop-color="#171623"  />
			<stop offset="0.94" stop-color="#9492f7"  />
		</radialGradient>
		<linearGradient id="grd2" gradientUnits="userSpaceOnUse"  x1="53.857" y1="-48.28" x2="573.803" y2="694.28">
			<stop offset="0" stop-color="#171623"  />
			<stop offset="1" stop-color="#9492f7"  />
		</linearGradient>
		<radialGradient id="grd3" gradientUnits="userSpaceOnUse"  cx="255.061" cy="382.459" r="150.253">
			<stop offset="0" stop-color="#9492f7"  />
			<stop offset="1" stop-color="#171623"  />
		</radialGradient>
	</defs>
	<style>
		tspan { white-space:pre }
		.shp0 { fill: url(#grd1) } 
		.shp1 { fill: url(#grd2) } 
		.shp2 { fill: url(#grd3) } 
	</style>
	<path id="Background copy" fill-rule="evenodd" class="shp0" d="M362.07 671.11C203.09 671.11 72.33 552.13 53.82 398.21C80.32 561.34 236.71 595.14 299.57 596C364.57 596.89 457.57 535 454.57 427.11C451.7 323.94 372.57 284 299.57 288C290.58 288.49 290.57 288 299.57 289.11C375.57 298.48 406.76 345.59 414.31 388.33C403.51 333.42 355.19 292.11 297.07 292.11C230.99 292.11 177.57 345.53 177.57 411.61C177.57 464.2 211.4 508.77 258.53 524.78C203.53 508.21 151.36 461.97 133.57 421C100.57 345 121 246.45 187.57 178C293.57 69 529.55 88.57 618.57 197C627.45 207.81 632.99 212.61 635.35 212.89C659.1 256.8 672.57 307.11 672.57 360.61C672.57 532.32 533.78 671.11 362.07 671.11ZM303.57 531C301.98 531.07 300.39 531.1 298.79 531.1C332.72 530.62 363.18 516.07 384.63 493C367.5 513.11 341.76 529.42 303.57 531ZM428.17 57.14C472.28 66.67 512.88 85.55 547.79 111.61C515.77 88.48 475.61 67.62 428.17 57.14Z" />
	<path id="Shape 2 copy" class="shp1" d="M257.92 298.83C389.39 271.07 425.24 381.72 413.57 434C405.96 468.09 378.57 527.89 303.57 531C234.6 533.86 156.22 473.16 133.57 421C100.57 345 121 246.45 187.57 178C293.57 69 533.64 95.09 618.57 197C640.65 223.49 635.85 212.62 635.85 212.62C635.85 212.62 553.42 50.8 362.57 50C169.02 49.18 33.57 203.22 51.57 381.11C69.57 559 216.45 594.32 299.57 596C372.12 597.47 469.9 534.45 466.9 426.55C464.03 323.39 372.57 284 299.57 288C290.58 288.49 249.05 300.7 257.92 298.83Z" />
	<path id="Layer 1" fill-rule="evenodd" class="shp2" d="M293.07 500.11C243.02 500.11 202.57 459.66 202.57 409.61C202.57 359.56 243.02 319.11 293.07 319.11C343.12 319.11 383.57 359.56 383.57 409.61C383.57 459.66 343.12 500.11 293.07 500.11Z" />
</svg>