<svg xmlns="http://www.w3.org/2000/svg" viewBox="0 0 396 396" width="350" height="350">
	<style>
		tspan { white-space:pre }
		.shp0 { fill: #b5b0fa } 
		.shp1 { fill: #333333 } 
	</style>
	<path id="Layer 1" class="shp0" d="M198.5 372C102.55 372 25 294.45 25 198.5C25 102.55 102.55 25 198.5 25C294.45 25 372 102.55 372 198.5C372 294.45 294.45 372 198.5 372Z" />
	<path id="Layer" class="shp1" d="M182.7 64.1L293.7 186.6C295.3 188.4 296 190.9 295.5 193.3L284.3 245.3C283.3 250 286.9 254.5 291.7 254.5L291.7 254.5C294.5 254.5 297.1 252.9 298.4 250.4L330.2 188.5C331.5 186.1 331.3 183.1 329.8 180.8L263.6 81.5C262.7 80.2 261.5 79.2 260 78.6L191 52C183.6 49.1 177.4 58.2 182.7 64.1Z" />
	<path id="Layer" class="shp1" d="M67 287L181.6 167.9C183.3 166.1 184 163.7 183.6 161.3L173.9 109C173 104.3 176.8 99.9 181.6 100.1L181.6 100.1C184.4 100.2 187 101.8 188.2 104.4L218.2 167.2C219.4 169.7 219.1 172.6 217.5 174.8L148.4 272C147.5 273.3 146.2 274.2 144.7 274.8L75 299.4C67.5 302 61.5 292.7 67 287Z" />
	<path id="Layer" class="shp1" d="M151.6 335.7L234 192.4C235.2 190.3 235.3 187.7 234.3 185.5L212.3 137C210.3 132.6 212.9 127.5 217.6 126.5L217.6 126.5C220.4 125.9 223.3 126.9 225.1 129.1L269.4 182.9C271.1 185 271.6 187.9 270.6 190.5L227 301.5C226.4 303 225.4 304.2 224.1 305.1L162.3 345.8C155.7 350.2 147.6 342.6 151.6 335.7Z" />
</svg>