<?xml version="1.0" encoding="utf-8"?>
<!-- Generator: Adobe Illustrator 22.0.1, SVG Export Plug-In . SVG Version: 6.00 Build 0)  -->
<svg version="1.1" id="Calque_1" xmlns="http://www.w3.org/2000/svg" xmlns:xlink="http://www.w3.org/1999/xlink" x="0px" y="0px"
	 viewBox="0 0 280.3 313.4" style="enable-background:new 0 0 280.3 313.4;" xml:space="preserve">
<style type="text/css">
	.st0{fill:#333333;}
</style>
<path class="st0" d="M124.7,23.1l111,122.5c1.6,1.8,2.3,4.3,1.8,6.7l-11.2,52c-1,4.7,2.6,9.2,7.4,9.2h0c2.8,0,5.4-1.6,6.7-4.1
	l31.8-61.9c1.3-2.4,1.1-5.4-0.4-7.7l-66.2-99.3c-0.9-1.3-2.1-2.3-3.6-2.9l-69-26.6C125.6,8.1,119.4,17.2,124.7,23.1z"/>
<path class="st0" d="M9,246l114.6-119.1c1.7-1.8,2.4-4.2,2-6.6l-9.7-52.3c-0.9-4.7,2.9-9.1,7.7-8.9h0c2.8,0.1,5.4,1.7,6.6,4.3
	l30,62.8c1.2,2.5,0.9,5.4-0.7,7.6L90.4,231c-0.9,1.3-2.2,2.2-3.7,2.8L17,258.4C9.5,261,3.5,251.7,9,246z"/>
<path class="st0" d="M93.6,294.7L176,151.4c1.2-2.1,1.3-4.7,0.3-6.9l-22-48.5c-2-4.4,0.6-9.5,5.3-10.5h0c2.8-0.6,5.7,0.4,7.5,2.6
	l44.3,53.8c1.7,2.1,2.2,5,1.2,7.6L169,260.5c-0.6,1.5-1.6,2.7-2.9,3.6l-61.8,40.7C97.7,309.2,89.6,301.6,93.6,294.7z"/>
</svg>
